# xmcd
#
# Track frame offsets:
#	187
#	16375
#	26942
#	43022
#	53265
#	66015
#	80400
#	120950
#	135560
#	145130
#	154337
#	173037
#	196522
#
# Disc length: 2866
#
# Revision: 3
# Processed by: cddbd v1.5.1PL0 Copyright (c) Steve Scherf et al.
# Submitted via: CDex 1.51
# Normalized: r2:TDELIM( - )
#
DISCID=9f0b300d
DTITLE=Various Artist - V.S.O.P. Album (Mercury 40th Anniversary V.S.O.P. Album) Disc 3
DYEAR=1984
DGENRE=Jazz
TTITLE0=Maynard Ferguson - The Roamin' Showman
TTITLE1=Maynard Ferguson - Taking A Chance On Love
TTITLE2=Jimmy Cleveland - Our Love Is Here To Stay
TTITLE3=Cannonball Adderley - Hopping John
TTITLE4=Cannonball Adderley - Yesterdays
TTITLE5=Cannonball Adderley - Sam's Tune
TTITLE6=Cannonball Adderley - Fuller Bop Man
TTITLE7=Quincy Jones - Moanin'
TTITLE8=Quincy Jones - Close your eyes
TTITLE9=Quincy Jones - Blues From Free And Easy
TTITLE10=Quincy Jones - Ghana
TTITLE11=Roland Kirk - Blues For Alice
TTITLE12=Roland Kirk - Domino
EXTD=YEAR: 1984
EXTT0=
EXTT1=
EXTT2=
EXTT3=
EXTT4=
EXTT5=
EXTT6=
EXTT7=
EXTT8=
EXTT9=
EXTT10=
EXTT11=
EXTT12=
PLAYORDER=
